<?xml version="1.0" standalone="no"?>
<!DOCTYPE svg PUBLIC "-//W3C//DTD SVG 20010904//EN"
 "http://www.w3.org/TR/2001/REC-SVG-20010904/DTD/svg10.dtd">
<svg version="1.0" xmlns="http://www.w3.org/2000/svg"
 width="600.000000pt" height="600.000000pt" viewBox="0 0 600.000000 600.000000"
 preserveAspectRatio="xMidYMid meet">
<metadata>
Created by potrace 1.11, written by Peter Selinger 2001-2013
</metadata>
<g transform="translate(0.000000,600.000000) scale(0.100000,-0.100000)"
fill="#000000" stroke="none">
<path d="M2768 5685 c-2 -1 -33 -6 -70 -9 -198 -20 -384 -74 -573 -166 -244
-119 -418 -257 -609 -487 -55 -66 -139 -202 -192 -312 -51 -104 -117 -282
-129 -349 -3 -15 -7 -38 -10 -52 -3 -14 -8 -38 -10 -55 -3 -16 -8 -37 -10 -45
-2 -8 -7 -49 -11 -90 -7 -86 -8 -2169 -1 -2215 3 -16 8 -55 12 -85 24 -203
120 -465 243 -665 265 -429 685 -706 1207 -799 142 -25 419 -25 548 0 12 2 47
8 77 14 30 5 71 15 90 21 19 5 42 12 50 14 8 1 47 14 85 28 546 191 959 634
1110 1191 13 50 27 109 30 131 3 22 8 46 10 53 9 26 19 171 19 272 0 199 -23
356 -80 535 -35 111 -40 123 -115 270 l-65 130 18 30 c83 132 170 351 202 509
23 111 25 126 33 206 12 128 4 434 -12 460 -2 3 -6 24 -10 48 -17 113 -74 287
-140 427 -193 405 -560 738 -983 889 -90 32 -250 73 -317 81 -27 3 -61 8 -75
11 -26 6 -316 14 -322 9z m356 -450 c170 -31 330 -95 476 -188 75 -48 71 -45
129 -95 103 -86 201 -196 267 -299 81 -126 168 -341 188 -468 16 -96 19 -140
20 -230 0 -144 -11 -236 -49 -385 -9 -36 -44 -129 -61 -163 l-19 -37 -44 38
c-238 204 -589 364 -873 397 -24 3 -56 8 -73 12 -16 4 -359 7 -762 7 -402 1
-735 4 -739 8 -7 8 -7 225 0 268 3 14 7 42 10 62 51 342 280 691 577 881 178
114 387 188 569 204 36 3 66 6 68 8 9 8 244 -6 316 -20z m-64 -1849 c42 -7
108 -20 155 -30 48 -10 182 -59 251 -92 91 -43 230 -136 304 -203 l55 -50 -40
-37 c-195 -180 -457 -301 -735 -339 -46 -6 -1461 -7 -1468 -1 -4 4 -6 594 -3
731 l1 30 718 -1 c394 0 737 -4 762 -8z m1053 -816 c251 -637 -28 -1365 -638
-1664 -131 -65 -199 -88 -334 -116 -194 -39 -412 -30 -610 25 -461 130 -811
499 -921 972 -24 99 -32 176 -34 309 l-1 101 715 0 c393 0 742 3 775 7 366 39
716 189 979 421 16 14 33 22 37 18 3 -5 18 -37 32 -73z"/>
</g>
</svg>
