<svg width="32" height="32" viewBox="0 0 32 32" fill="none" xmlns="http://www.w3.org/2000/svg">
<path fill-rule="evenodd" clip-rule="evenodd" d="M2.75861 4.41378C2.75861 4.41378 3.31033 8.27583 6.62066 9.93099V10.4827C5.40191 10.4827 4.41377 11.4709 4.41377 12.6896C4.41377 13.9084 5.40191 14.8965 6.62066 14.8965H6.69128C7.10507 18.4242 9.47582 21.3456 12.6896 22.5599V25.3792C12.6896 27.2076 14.1715 28.6895 15.9999 28.6895C17.8283 28.6895 19.3103 27.2076 19.3103 25.3792V22.5599C22.524 21.3456 24.8948 18.4242 25.3086 14.8965H25.3792C26.598 14.8965 27.5861 13.9084 27.5861 12.6896C27.5861 11.4709 26.598 10.4827 25.3792 10.4827V9.37927C25.3792 3.86205 20.8258 0 15.9999 0C14.3448 0 13.1034 0.413791 11.862 0.827583C10.6206 1.24137 9.37927 1.65517 7.72411 1.65517C4.41377 1.65517 3.31033 0.551722 3.31033 0.551722C3.31033 0.551722 3.86205 3.31033 6.06894 4.41378C6.06894 4.41378 4.41377 4.9655 2.75861 4.41378ZM15.9999 8.27583C15.9999 9.37927 15.4482 11.0344 15.4482 11.0344C19.3103 11.0344 19.3103 6.06894 19.3103 6.06894C19.3103 6.06894 20.2537 9.80079 24.2758 10.395V10.4827V13.793C24.2758 18.3563 20.5632 22.0689 15.9999 22.0689C11.4366 22.0689 7.72411 18.3563 7.72411 13.793V10.4827V10.3564C11.8217 11.5222 15.9999 8.27583 15.9999 8.27583ZM29.793 18.2068V17.1034C29.793 15.8846 30.7811 14.8965 31.9999 14.8965V31.9999H28.1378V27.0344H27.0344C26.4247 27.0344 25.9309 26.5406 25.9309 25.9309C25.9309 25.3213 26.4247 24.8275 27.0344 24.8275C26.4247 24.8275 25.9309 24.3337 25.9309 23.724C25.9309 23.1144 26.4247 22.6206 27.0344 22.6206C26.4247 22.6206 25.9309 22.1268 25.9309 21.5172C25.9309 20.9075 26.4247 20.4137 27.0344 20.4137C26.4247 20.4137 25.9309 19.9199 25.9309 19.3103C25.9309 18.7006 26.4247 18.2068 27.0344 18.2068H29.793ZM20.4038 25.5691L24.8694 26.346C25.0647 27.365 25.9596 28.1379 27.0344 28.1379V32H0V31.2988C0 29.1526 1.54317 27.3175 3.65736 26.9501L11.5955 25.5697C11.6965 27.9145 13.6303 29.7931 15.9999 29.7931C18.3696 29.7931 20.3034 27.9145 20.4038 25.5691ZM13.2413 12.6896C13.2413 13.299 12.7473 13.793 12.1379 13.793C11.5285 13.793 11.0344 13.299 11.0344 12.6896C11.0344 12.0802 11.5285 11.5862 12.1379 11.5862C12.7473 11.5862 13.2413 12.0802 13.2413 12.6896ZM19.862 13.793C20.4714 13.793 20.9654 13.299 20.9654 12.6896C20.9654 12.0802 20.4714 11.5862 19.862 11.5862C19.2526 11.5862 18.7585 12.0802 18.7585 12.6896C18.7585 13.299 19.2526 13.793 19.862 13.793ZM18.6316 16.3518C17.9348 17.1921 17.0002 17.655 15.9999 17.655C14.9997 17.655 14.065 17.1921 13.3682 16.3518L14.2179 15.6478C14.7012 16.2305 15.334 16.5516 15.9999 16.5516C16.6659 16.5516 17.2987 16.2305 17.782 15.6478L18.6316 16.3518Z" fill="#2fa483ff"/>
</svg>
