<svg width="24" height="24" viewBox="0 0 24 24" fill="none" xmlns="https://www.w3.org/2000/svg">
<path d="M21 12C21 13.1819 20.7672 14.3522 20.3149 15.4442C19.9599 16.3013 19.475 17.097 18.8787 17.8038C18.7153 17.9974 18.5436 18.1843 18.364 18.364C17.5282 19.1997 16.5361 19.8626 15.4442 20.3149C14.3522 20.7672 13.1819 21 12 21C10.8181 21 9.64778 20.7672 8.55585 20.3149C7.46392 19.8626 6.47177 19.1997 5.63604 18.364C5.45636 18.1843 5.28467 17.9974 5.12135 17.8038C4.52499 17.097 4.04014 16.3013 3.68508 15.4442C3.23279 14.3522 3 13.1819 3 12C3 9.61305 3.94821 7.32387 5.63604 5.63604C7.32387 3.94821 9.61305 3 12 3C14.3869 3 16.6761 3.94821 18.364 5.63604C20.0518 7.32387 21 9.61305 21 12Z" fill="#222428"/>
<path d="M5.121 17.804C7.21942 16.6179 9.58958 15.9963 12 16C14.5 16 16.847 16.655 18.879 17.804M21 12C21 13.1819 20.7672 14.3522 20.3149 15.4442C19.8626 16.5361 19.1997 17.5282 18.364 18.364C17.5282 19.1997 16.5361 19.8626 15.4442 20.3149C14.3522 20.7672 13.1819 21 12 21C10.8181 21 9.64778 20.7672 8.55585 20.3149C7.46392 19.8626 6.47177 19.1997 5.63604 18.364C4.80031 17.5282 4.13738 16.5361 3.68508 15.4442C3.23279 14.3522 3 13.1819 3 12C3 9.61305 3.94821 7.32387 5.63604 5.63604C7.32387 3.94821 9.61305 3 12 3C14.3869 3 16.6761 3.94821 18.364 5.63604C20.0518 7.32387 21 9.61305 21 12Z" stroke="#222428" stroke-width="2" stroke-linecap="round" stroke-linejoin="round"/>
<path d="M12.0001 16C9.58967 15.9964 7.21951 16.6179 5.12109 17.804L5.63613 18.364C6.47186 19.1997 7.46401 19.8626 8.55594 20.3149C9.64787 20.7672 10.8182 21 12.0001 21C13.182 21 14.3523 20.7672 15.4442 20.3149C16.5362 19.8626 17.5283 19.1997 18.3641 18.364L18.8791 17.804C16.8471 16.655 14.5001 16 12.0001 16Z" fill="white" stroke="#222428" stroke-width="2" stroke-linecap="round" stroke-linejoin="round"/>
<path d="M14.1213 12.1213C14.6839 11.5587 15 10.7956 15 10C15 9.20435 14.6839 8.44129 14.1213 7.87868C13.5587 7.31607 12.7956 7 12 7C11.2044 7 10.4413 7.31607 9.87868 7.87868C9.31607 8.44129 9 9.20435 9 10C9 10.7956 9.31607 11.5587 9.87868 12.1213C10.4413 12.6839 11.2044 13 12 13C12.7956 13 13.5587 12.6839 14.1213 12.1213Z" fill="white" stroke="white" stroke-width="2" stroke-linecap="round" stroke-linejoin="round"/>
</svg>