<svg width="32" height="32" viewBox="0 0 32 32" fill="none" xmlns="http://www.w3.org/2000/svg">
<path fill-rule="evenodd" clip-rule="evenodd" d="M11.25 1.875C11.25 0.841375 10.4096 0 9.375 0H7.5C6.46544 0 5.625 0.841375 5.625 1.875V5.6875H11.25V1.875ZM28.1875 8.5C28.1875 9.01777 27.7678 9.4375 27.25 9.4375C26.7322 9.4375 26.3125 9.01777 26.3125 8.5C26.3125 7.98223 26.7322 7.5625 27.25 7.5625C27.7678 7.5625 28.1875 7.98223 28.1875 8.5ZM28.1875 14.125C28.1875 15.6783 26.9283 16.9375 25.375 16.9375C23.8217 16.9375 22.5625 15.6783 22.5625 14.125C22.5625 12.5717 23.8217 11.3125 25.375 11.3125C26.9283 11.3125 28.1875 12.5717 28.1875 14.125ZM20.625 32C19.1613 32 17.8382 31.3622 16.8365 30.4428C16.8389 30.4198 16.8417 30.3969 16.8446 30.3741C16.847 30.3558 16.8495 30.3375 16.852 30.3191C16.8635 30.2346 16.875 30.1501 16.875 30.0625C16.875 28.0786 17.2467 27.1484 17.6807 26.0662C18.1595 24.87 18.6926 23.507 18.7407 21.0359C19.3326 20.8237 19.9609 20.6875 20.625 20.6875H26.375C29.4768 20.6875 32 23.2107 32 26.3125C32 29.4143 29.4768 32 26.375 32H20.625ZM1.875 30.0625C1.875 31.0961 2.71544 32 3.75 32H13.125C14.1596 32 15 31.0961 15 30.0625C15 27.7224 15.4742 26.5322 15.9375 25.3741L15.9392 25.3698C16.4201 24.1674 16.875 23.0303 16.875 20.6875C16.875 18.3419 16.4191 17.2048 15.9338 15.9945C15.4742 14.8428 15 13.6526 15 11.3125C15 9.24431 13.3172 7.5625 11.25 7.5625H5.625C3.55775 7.5625 1.875 9.24431 1.875 11.3125C1.875 13.6526 1.40076 14.8428 0.9375 16.0009L0.935852 16.005C0.454895 17.2074 0 18.3446 0 20.6875C0 23.0331 0.455933 24.1702 0.941193 25.3805C1.40076 26.5323 1.875 27.7224 1.875 30.0625ZM3.9075 18.2925C4.34325 17.6388 4.6875 17.1224 4.6875 16C4.6875 13.9318 6.37025 12.25 8.4375 12.25C10.5047 12.25 12.1875 13.9318 12.1875 16C12.1875 17.1224 12.5318 17.6388 12.9675 18.2925L12.9693 18.2952C13.4561 19.0263 14.0625 19.937 14.0625 21.625C14.0625 24.7268 11.5393 27.25 8.4375 27.25C5.33569 27.25 2.8125 24.7268 2.8125 21.625C2.8125 19.937 3.41891 19.0263 3.90567 18.2952L3.9075 18.2925ZM12.1875 21.625C12.1875 23.6932 10.5047 25.375 8.4375 25.375C6.37025 25.375 4.6875 23.6932 4.6875 21.625C4.6875 20.5026 5.03175 19.9862 5.4675 19.3325L5.46933 19.3298C5.95609 18.5987 6.5625 17.688 6.5625 16C6.5625 14.9664 7.40294 14.125 8.4375 14.125C9.47206 14.125 10.3125 14.9664 10.3125 16C10.3125 17.688 10.9189 18.5987 11.4057 19.3298L11.4075 19.3325C11.8432 19.9862 12.1875 20.5026 12.1875 21.625Z" fill="#2fa483ff"/>
</svg>
