<svg width="6" height="10" viewBox="0 0 6 10" fill="none" xmlns="http://www.w3.org/2000/svg">
<path fill-rule="evenodd" clip-rule="evenodd" d="M5.70679 0.293031C5.89426 0.480558 5.99957 0.734866 5.99957 1.00003C5.99957 1.26519 5.89426 1.5195 5.70679 1.70703L2.41379 5.00003L5.70679 8.29303C5.88894 8.48163 5.98974 8.73423 5.98746 8.99643C5.98518 9.25863 5.88001 9.50944 5.6946 9.69485C5.5092 9.88026 5.25838 9.98543 4.99619 9.9877C4.73399 9.98998 4.48139 9.88919 4.29279 9.70703L0.292787 5.70703C0.105316 5.5195 0 5.26519 0 5.00003C0 4.73487 0.105316 4.48056 0.292787 4.29303L4.29279 0.293031C4.48031 0.10556 4.73462 0.000244141 4.99979 0.000244141C5.26495 0.000244141 5.51926 0.10556 5.70679 0.293031Z" fill="#222428"/>
</svg>
