<svg width="9" height="6" viewBox="0 0 9 6" fill="none" xmlns="http://www.w3.org/2000/svg">
<path fill-rule="evenodd" clip-rule="evenodd" d="M0.234229 5.16556C0.384252 5.31554 0.587698 5.39979 0.799829 5.39979C1.01196 5.39979 1.21541 5.31554 1.36543 5.16556L3.99983 2.53116L6.63423 5.16556C6.70803 5.24197 6.7963 5.30291 6.89391 5.34484C6.99151 5.38677 7.09649 5.40884 7.20271 5.40976C7.30893 5.41068 7.41428 5.39044 7.51259 5.35022C7.61091 5.30999 7.70023 5.25059 7.77535 5.17548C7.85046 5.10036 7.90986 5.01104 7.95009 4.91272C7.99031 4.81441 8.01055 4.70906 8.00963 4.60284C8.00871 4.49661 7.98664 4.39164 7.94471 4.29404C7.90278 4.19643 7.84184 4.10816 7.76543 4.03436L4.56543 0.83436C4.41541 0.684383 4.21196 0.600131 3.99983 0.600131C3.7877 0.600131 3.58425 0.684383 3.43423 0.83436L0.234229 4.03436C0.0842524 4.18438 0 4.38783 0 4.59996C0 4.81209 0.0842524 5.01554 0.234229 5.16556Z" fill="white"/>
</svg>
