<svg width="96" height="96" viewBox="0 0 96 96" fill="none" xmlns="http://www.w3.org/2000/svg">
<path d="M86.6733 48.0002C86.6733 58.6806 82.3443 68.3478 75.3459 75.3459C68.3476 82.3441 58.6806 86.6733 48.0002 86.6733C37.3199 86.6733 27.6527 82.3443 20.6546 75.3459C13.6564 68.3476 9.32715 58.6806 9.32715 48.0002C9.32715 37.3199 13.6562 27.6527 20.6546 20.6546C27.6527 13.6564 37.3199 9.32715 48.0002 9.32715C58.6806 9.32715 68.3478 13.6562 75.3459 20.6546C82.3441 27.6527 86.6733 37.3199 86.6733 48.0002Z" fill="#2fa483ff"/>
<path d="M27.5427 74.2539C20.824 67.5354 16.668 58.2543 16.668 48.0009C16.668 37.7474 20.8242 28.4663 27.5427 21.7477C33.6223 15.668 41.8003 11.6872 50.8983 10.9849C49.9421 10.9111 48.9759 10.873 48.0009 10.873C37.7474 10.873 28.4663 15.0292 21.7479 21.7477C15.0292 28.4663 10.873 37.7474 10.873 48.0009C10.873 58.2543 15.0292 67.5354 21.7477 74.2539C28.4663 80.9725 37.7472 85.1285 48.0007 85.1285C48.9757 85.1285 49.9419 85.0905 50.8981 85.0167C41.8003 84.3145 33.6221 80.3335 27.5427 74.2539Z" fill="#2fa483ff"/>
<path d="M48.0001 0L43.3643 6.37888L48.0001 11.0564C58.2027 11.0564 67.4376 15.1919 74.1229 21.8772L80.8962 22.5028L81.9419 14.0581C73.2536 5.37368 61.2546 0 48.0001 0Z" fill="#FCA14E"/>
<path d="M89.3857 43.5518L84.9438 47.9998C84.9438 58.2025 80.8083 67.4374 74.123 74.1226V80.4016L81.9421 81.9417C90.6265 73.2534 96.0002 61.2544 96.0002 47.9998L89.3857 43.5518Z" fill="#FCA14E"/>
<path d="M47.9995 84.9438C37.7968 84.9438 28.5619 80.8083 21.8767 74.123H15.5996L14.0576 81.9421C22.7459 90.6265 34.7449 96.0002 47.9995 96.0002L51.5407 89.4722L47.9995 84.9438Z" fill="#FCA14E"/>
<path d="M14.0581 14.0576C5.37368 22.7459 0 34.7449 0 47.9995L6.55735 51.8727L11.0564 47.9995C11.0564 37.7968 15.1919 28.5619 21.8772 21.8767L22.4335 15.1551L14.0581 14.0576Z" fill="#FCA14E"/>
<path d="M81.9419 81.9421C73.2536 90.6265 61.2546 96.0002 48 96.0002V84.9438C58.2026 84.9438 67.4376 80.8083 74.1228 74.123L81.9419 81.9421Z" fill="#FCDE4E"/>
<path d="M21.8772 74.1228L14.0581 81.9419C5.37368 73.2536 0 61.2546 0 48H11.0564C11.0564 58.2026 15.1919 67.4376 21.8772 74.1228Z" fill="#FCDE4E"/>
<path d="M47.9995 0V11.0564C37.7968 11.0564 28.5619 15.1919 21.8767 21.8772L14.0576 14.0581C22.7459 5.37368 34.7449 0 47.9995 0Z" fill="#FCDE4E"/>
<path d="M96.0002 47.9995H84.9438C84.9438 37.7968 80.8083 28.5619 74.123 21.8767L81.9421 14.0576C90.6265 22.7459 96.0002 34.7449 96.0002 47.9995Z" fill="#FCDE4E"/>
<path d="M75.5114 42.5473C77.757 40.3584 76.5179 36.5445 73.4144 36.0937L60.1668 34.1686C58.9345 33.9896 57.8692 33.2156 57.3179 32.0989L51.3934 20.0945C50.0055 17.2823 45.9955 17.2823 44.6075 20.0945L38.6829 32.0989C38.1318 33.2156 37.0666 33.9896 35.834 34.1686L22.5864 36.0937C19.4831 36.5447 18.2438 40.3584 20.4895 42.5473L30.0756 51.8913C30.9674 52.7605 31.3742 54.013 31.1636 55.2403L28.9006 68.4344C28.3704 71.5253 31.6147 73.8823 34.3904 72.423L46.2395 66.1936C47.3417 65.6141 48.6586 65.6141 49.7608 66.1936L61.6099 72.423C64.3856 73.8823 67.6299 71.5252 67.0997 68.4344L64.8366 55.2403C64.6261 54.013 65.0331 52.7605 65.9247 51.8913L75.5114 42.5473Z" fill="#FCDE4E"/>
<path d="M36.9702 47.4032C36.1701 47.4032 35.5215 46.7546 35.5215 45.9546V43.9585C35.5215 43.1584 36.1701 42.5098 36.9702 42.5098C37.7702 42.5098 38.4189 43.1584 38.4189 43.9585V45.9546C38.4189 46.7546 37.7702 47.4032 36.9702 47.4032Z" fill="#222428"/>
<path d="M59.0288 47.4032C58.2287 47.4032 57.5801 46.7546 57.5801 45.9546V43.9585C57.5801 43.1584 58.2287 42.5098 59.0288 42.5098C59.8288 42.5098 60.4775 43.1584 60.4775 43.9585V45.9546C60.4775 46.7546 59.8288 47.4032 59.0288 47.4032Z" fill="#222428"/>
<path d="M48.0002 48.469C46.5212 48.469 45.1313 47.8495 44.1871 46.7694C43.6605 46.1669 43.722 45.2517 44.3244 44.7252C44.9269 44.1986 45.8419 44.26 46.3686 44.8625C46.7627 45.3132 47.3572 45.5716 48.0002 45.5716C48.6433 45.5716 49.2378 45.3132 49.6317 44.8625C50.1582 44.26 51.0736 44.1988 51.6759 44.7252C52.2783 45.2517 52.3397 46.1669 51.8132 46.7694C50.869 47.8495 49.4793 48.469 48.0002 48.469Z" fill="#222428"/>
</svg>
