<?xml version="1.0" encoding="UTF-8"?>
<svg width="24" height="24" viewBox="0 0 24 24" fill="none" xmlns="https://www.w3.org/2000/svg">
<path d="M3.34249 7.77795C3.56864 7.23198 3.90011 6.7359 4.31798 6.31804C4.73584 5.90017 5.23192 5.5687 5.77789 5.34255C6.32386 5.1164 6.90902 5 7.49998 5C8.09093 5 8.6761 5.1164 9.22207 5.34255C9.76803 5.5687 10.2641 5.90017 10.682 6.31804L12 7.63604L13.318 6.31804C14.1619 5.47412 15.3065 5.00001 16.5 5.00001C17.6935 5.00001 18.8381 5.47412 19.682 6.31804C20.5259 7.16196 21 8.30656 21 9.50004C21 10.6935 20.5259 11.8381 19.682 12.682L12 20.364L4.31798 12.682C3.90011 12.2642 3.56864 11.7681 3.34249 11.2221C3.11634 10.6762 2.99994 10.091 2.99994 9.50004C2.99994 8.90909 3.11634 8.32392 3.34249 7.77795Z" stroke="#222428" stroke-width="2" stroke-linecap="round" stroke-linejoin="round"/>
</svg>
