<svg width="20" height="20" viewBox="0 0 20 20" fill="none" xmlns="https://www.w3.org/2000/svg">
<path d="M9.99999 1.66663C7.7361 1.66663 7.45346 1.67704 6.56457 1.71663C5.67707 1.75829 5.07291 1.89788 4.54166 2.10413C3.99374 2.31663 3.52846 2.60204 3.06527 3.06524C2.60207 3.52843 2.31596 3.99301 2.10416 4.54163C1.89791 5.07288 1.75763 5.67704 1.71666 6.56454C1.67499 7.45343 1.66666 7.73607 1.66666 9.99996C1.66666 12.2638 1.67707 12.5465 1.71666 13.4354C1.75832 14.3222 1.89791 14.927 2.10416 15.4583C2.31666 16.0055 2.60207 16.4715 3.06527 16.9347C3.52846 17.3972 3.99305 17.684 4.54166 17.8958C5.0736 18.1013 5.67777 18.2423 6.56457 18.2833C7.45346 18.325 7.7361 18.3333 9.99999 18.3333C12.2639 18.3333 12.5465 18.3229 13.4354 18.2833C14.3222 18.2416 14.9271 18.1013 15.4583 17.8958C16.0055 17.6833 16.4715 17.3972 16.9347 16.9347C17.3972 16.4715 17.684 16.0076 17.8958 15.4583C18.1014 14.927 18.2424 14.3222 18.2833 13.4354C18.325 12.5465 18.3333 12.2638 18.3333 9.99996C18.3333 7.73607 18.3229 7.45343 18.2833 6.56454C18.2417 5.67774 18.1014 5.07218 17.8958 4.54163C17.6833 3.99371 17.3972 3.52843 16.9347 3.06524C16.4715 2.60204 16.0076 2.31593 15.4583 2.10413C14.9271 1.89788 14.3222 1.7576 13.4354 1.71663C12.5465 1.67496 12.2639 1.66663 9.99999 1.66663ZM9.99999 3.16663C12.2243 3.16663 12.4896 3.17774 13.368 3.21593C14.1805 3.25413 14.6215 3.38885 14.9146 3.50413C15.3049 3.65482 15.5812 3.83538 15.8743 4.12635C16.1653 4.41802 16.3458 4.6951 16.4965 5.08538C16.6104 5.37843 16.7465 5.8194 16.7833 6.6319C16.8229 7.51107 16.8319 7.77496 16.8319 9.99996C16.8319 12.225 16.8215 12.4895 16.7805 13.368C16.7382 14.1805 16.6028 14.6215 16.4882 14.9145C16.3326 15.3048 16.1555 15.5812 15.8639 15.8743C15.5729 16.1652 15.2917 16.3458 14.9055 16.4965C14.6139 16.6104 14.166 16.7465 13.3535 16.7833C12.4687 16.8229 12.2083 16.8319 9.97916 16.8319C7.7493 16.8319 7.48888 16.8215 6.60485 16.7805C5.79166 16.7382 5.34374 16.6027 5.05207 16.4882C4.65693 16.3326 4.38541 16.1555 4.09443 15.8638C3.80207 15.5729 3.61527 15.2916 3.46943 14.9055C3.35485 14.6138 3.22013 14.1659 3.17777 13.3534C3.14652 12.4784 3.13541 12.2083 3.13541 9.98954C3.13541 7.7701 3.14652 7.49927 3.17777 6.61385C3.22013 5.80135 3.35485 5.35413 3.46943 5.06246C3.61527 4.66663 3.80207 4.39579 4.09443 4.10343C4.38541 3.81246 4.65693 3.62496 5.05207 3.47982C5.34374 3.36454 5.78193 3.22913 6.59443 3.18746C7.47985 3.15621 7.74027 3.14579 9.96874 3.14579L9.99999 3.16663ZM9.99999 5.72079C7.63541 5.72079 5.72082 7.63746 5.72082 9.99996C5.72082 12.3645 7.63749 14.2791 9.99999 14.2791C12.3646 14.2791 14.2792 12.3625 14.2792 9.99996C14.2792 7.63538 12.3625 5.72079 9.99999 5.72079ZM9.99999 12.7777C8.46527 12.7777 7.22221 11.5347 7.22221 9.99996C7.22221 8.46524 8.46527 7.22218 9.99999 7.22218C11.5347 7.22218 12.7778 8.46524 12.7778 9.99996C12.7778 11.5347 11.5347 12.7777 9.99999 12.7777ZM15.4486 5.55204C15.4486 6.10413 15 6.55204 14.4486 6.55204C13.8965 6.55204 13.4486 6.10343 13.4486 5.55204C13.4486 5.00065 13.8972 4.55274 14.4486 4.55274C14.9993 4.55204 15.4486 5.00065 15.4486 5.55204Z" fill="#222428"/>
</svg>
