<svg width="14" height="14" viewBox="0 0 14 14" fill="none" xmlns="https://www.w3.org/2000/svg">
<path d="M0.599609 7.4001C0.599609 7.24251 0.630648 7.08647 0.690954 6.94088C0.75126 6.79529 0.839651 6.663 0.951081 6.55157C1.06251 6.44014 1.1948 6.35175 1.34039 6.29144C1.48598 6.23114 1.64202 6.2001 1.79961 6.2001C1.9572 6.2001 2.11324 6.23114 2.25883 6.29144C2.40442 6.35175 2.53671 6.44014 2.64814 6.55157C2.75957 6.663 2.84796 6.79529 2.90826 6.94088C2.96857 7.08647 2.99961 7.24251 2.99961 7.4001V12.2001C2.99961 12.5184 2.87318 12.8236 2.64814 13.0486C2.42309 13.2737 2.11787 13.4001 1.79961 13.4001C1.48135 13.4001 1.17612 13.2737 0.951081 13.0486C0.726038 12.8236 0.599609 12.5184 0.599609 12.2001V7.4001ZM3.79961 7.2665V11.6105C3.79947 11.9078 3.88219 12.1993 4.03847 12.4523C4.19476 12.7052 4.41844 12.9096 4.68441 13.0425L4.72441 13.0625C5.16832 13.2844 5.65774 13.3999 6.15401 13.4001H10.4868C10.8568 13.4002 11.2155 13.2721 11.5017 13.0376C11.7878 12.803 11.9839 12.4765 12.0564 12.1137L13.0164 7.3137C13.0628 7.0816 13.0571 6.84209 12.9998 6.61245C12.9424 6.38281 12.8348 6.16875 12.6848 5.98571C12.5347 5.80266 12.3459 5.65519 12.132 5.55393C11.918 5.45266 11.6843 5.40012 11.4476 5.4001H8.59961V2.2001C8.59961 1.77575 8.43104 1.36879 8.13098 1.06873C7.83092 0.768669 7.42396 0.600098 6.99961 0.600098C6.78744 0.600098 6.58395 0.684383 6.43392 0.834412C6.2839 0.984441 6.19961 1.18792 6.19961 1.4001V1.9337C6.19961 2.62608 5.97504 3.29979 5.55961 3.8537L4.43961 5.3465C4.02418 5.90041 3.79961 6.57411 3.79961 7.2665Z" fill="#222428"/>
</svg>
