<svg width="6" height="10" viewBox="0 0 6 10" fill="none" xmlns="http://www.w3.org/2000/svg">
<path fill-rule="evenodd" clip-rule="evenodd" d="M0.292787 9.70698C0.105316 9.51945 0 9.26514 0 8.99998C0 8.73482 0.105316 8.48051 0.292787 8.29298L3.58579 4.99998L0.292787 1.70698C0.110629 1.51838 0.00983372 1.26578 0.0121121 1.00358C0.0143906 0.741382 0.11956 0.49057 0.304968 0.305162C0.490376 0.119753 0.741189 0.0145843 1.00339 0.0123059C1.26558 0.0100274 1.51818 0.110822 1.70679 0.29298L5.70679 4.29298C5.89426 4.48051 5.99957 4.73482 5.99957 4.99998C5.99957 5.26514 5.89426 5.51945 5.70679 5.70698L1.70679 9.70698C1.51926 9.89445 1.26495 9.99977 0.999786 9.99977C0.734622 9.99977 0.480314 9.89445 0.292787 9.70698Z" fill="#222428"/>
</svg>
