<svg width="6" height="10" viewBox="0 0 6 10" fill="none" xmlns="https://www.w3.org/2000/svg">
<path fill-rule="evenodd" clip-rule="evenodd" d="M0.401314 9.51871C0.221342 9.33869 0.120239 9.09455 0.120239 8.83999C0.120239 8.58544 0.221342 8.3413 0.401314 8.16127L3.56259 5L0.401314 1.83872C0.226443 1.65766 0.12968 1.41516 0.131867 1.16345C0.134054 0.911741 0.235017 0.670962 0.413008 0.49297C0.591 0.314978 0.83178 0.214016 1.08349 0.211828C1.3352 0.209641 1.5777 0.306404 1.75875 0.481276L5.59875 4.32128C5.77873 4.5013 5.87983 4.74544 5.87983 5C5.87983 5.25455 5.77873 5.49869 5.59875 5.67871L1.75875 9.51871C1.57873 9.69869 1.33459 9.79979 1.08003 9.79979C0.825477 9.79979 0.581341 9.69869 0.401314 9.51871Z" fill="black"/>
</svg>
