<svg width="14" height="14" viewBox="0 0 14 14" fill="none" xmlns="https://www.w3.org/2000/svg">
<path d="M0.600195 6.6001C0.600195 6.91836 0.726624 7.22358 0.951668 7.44863C1.17671 7.67367 1.48194 7.8001 1.8002 7.8001C2.11845 7.8001 2.42368 7.67367 2.64872 7.44863C2.87377 7.22358 3.0002 6.91836 3.0002 6.6001V1.8001C3.0002 1.48184 2.87377 1.17661 2.64872 0.95157C2.42368 0.726526 2.11845 0.600098 1.8002 0.600098C1.48194 0.600098 1.17671 0.726526 0.951668 0.95157C0.726624 1.17661 0.600195 1.48184 0.600195 1.8001V6.6001ZM3.80019 6.7337V2.3897C3.79998 2.09245 3.88258 1.80102 4.03872 1.54809C4.19486 1.29515 4.41837 1.09072 4.68419 0.957698L4.72419 0.937698C5.16883 0.715471 5.65912 0.599883 6.15619 0.600098H10.4882C10.8582 0.599951 11.2169 0.728059 11.503 0.96261C11.7892 1.19716 11.9853 1.52365 12.0578 1.8865L13.0178 6.6865C13.0642 6.91867 13.0585 7.15824 13.0011 7.38794C12.9437 7.61764 12.8361 7.83174 12.6859 8.0148C12.5358 8.19786 12.3469 8.34531 12.1328 8.44653C11.9188 8.54774 11.685 8.60019 11.4482 8.6001H8.60019V11.8001C8.60019 12.2244 8.43162 12.6314 8.13157 12.9315C7.83151 13.2315 7.42454 13.4001 7.00019 13.4001C6.78802 13.4001 6.58454 13.3158 6.43451 13.1658C6.28448 13.0158 6.20019 12.8123 6.20019 12.6001V12.0665C6.20019 11.3741 5.97563 10.7004 5.56019 10.1465L4.4402 8.6537C4.02476 8.09979 3.80019 7.42608 3.80019 6.7337Z" fill="#222428"/>
</svg>
