<svg width="32" height="32" viewBox="0 0 32 32" fill="none" xmlns="http://www.w3.org/2000/svg">
<g clip-path="url(#clip0)">
<path fill-rule="evenodd" clip-rule="evenodd" d="M5.99839 0.505908L13.5869 0V1.10486H5.79879L5.99839 0.505908ZM5.10823 7.96984H7.29349H8.43775H10.623L10.2416 5.68132H5.48962L5.10823 7.96984ZM3.15107 31.5036L1 15.3711C1.0117 13.7091 1.67969 12.1189 2.85847 10.9471C4.03725 9.77528 5.63132 9.11673 7.29346 9.11488H8.43772C10.0999 9.11673 11.6939 9.77528 12.8727 10.9471C14.0515 12.1189 14.7195 13.7091 14.7312 15.3711L14.1702 19.5782C13.8758 19.7985 13.6045 20.0277 13.3418 20.25L13.3418 20.25C12.4212 21.0289 11.6258 21.7018 10.1541 21.7018C10.0024 21.7018 9.85685 21.7621 9.74956 21.8694C9.64226 21.9767 9.58199 22.1222 9.58199 22.2739V23.9903H9.50811C9.07264 23.9908 8.65514 24.164 8.34721 24.4719C8.03929 24.7799 7.86608 25.1974 7.86559 25.6328V31.5019C7.86553 31.671 7.89166 31.8391 7.94304 32.0002H3.7182C3.57966 31.9998 3.44594 31.9493 3.34171 31.858C3.23748 31.7668 3.16977 31.6409 3.15107 31.5036ZM10.7262 22.8452H22.1688V23.9895H10.7262V22.8452ZM9.00984 31.5016V25.6325C9.00997 25.5004 9.06251 25.3738 9.15592 25.2804C9.24933 25.187 9.37599 25.1344 9.5081 25.1343H23.387C23.5191 25.1344 23.6458 25.187 23.7392 25.2804C23.8326 25.3738 23.8851 25.5004 23.8853 25.6325V31.5016C23.8851 31.6337 23.8326 31.7604 23.7392 31.8538C23.6458 31.9472 23.5191 31.9997 23.387 31.9999H9.5081C9.37599 31.9997 9.24933 31.9472 9.15592 31.8538C9.06251 31.7604 9.00997 31.6337 9.00984 31.5016ZM28.4625 29.7113V31.4277C28.4623 31.5793 28.402 31.7248 28.2947 31.832C28.1875 31.9393 28.042 31.9996 27.8903 31.9998H24.9522C25.0036 31.8387 25.0297 31.6706 25.0297 31.5015V29.7113H28.4625ZM17.8005 20.0436C17.677 19.8617 17.5941 19.6553 17.5573 19.4385C15.8982 19.5851 15.0128 20.3343 14.0812 21.1226C13.8507 21.3176 13.6182 21.5141 13.3741 21.7012H21.9766L21.9672 21.6835L21.9671 21.6834C21.9634 21.6764 21.9597 21.6693 21.9557 21.6623C21.7493 21.2985 21.4537 21.129 21.0246 21.129C19.369 21.129 18.2843 20.7639 17.8005 20.0436ZM30.7508 10.2588H20.4524V11.4031H30.7508V10.2588ZM20.5337 12.5473L21.5323 20.0383C21.8399 20.1036 22.129 20.2366 22.3786 20.4276C22.6283 20.6187 22.8322 20.863 22.9756 21.1428C23.1534 21.4758 23.2668 21.8393 23.3098 22.2143V22.2162C23.3098 22.2198 23.3107 22.2261 23.3107 22.2261C23.312 22.2418 23.3131 22.2576 23.3131 22.2736V23.99H23.387C23.8224 23.9905 24.2399 24.1637 24.5479 24.4716C24.8558 24.7795 25.029 25.197 25.0295 25.6325V28.567H28.5338L30.6698 12.5473H20.5337ZM9.00974 2.24887H6.72121V4.53739H9.00974V2.24887Z" fill="#2fa483ff"/>
<path fill-rule="evenodd" clip-rule="evenodd" d="M16.5744 28.9964H15.535V28.4196H16.5744C16.8435 28.4278 17.0839 28.5362 17.2589 28.708C17.0839 28.8798 16.8435 28.9882 16.5744 28.9964ZM17.4508 28.4434C17.2224 28.2373 16.9189 28.1088 16.5815 28.0993L15.535 28.0993V27.9812C15.5517 27.445 15.9939 27.0253 16.5428 27.0253C17.0987 27.0253 17.551 27.4678 17.551 28.0117C17.551 28.1668 17.5151 28.3132 17.4508 28.4434ZM17.6753 28.7079C17.8042 28.5068 17.8783 28.2682 17.8783 28.0117C17.8783 27.2912 17.2792 26.7051 16.5428 26.7051C15.8148 26.7051 15.2285 27.2626 15.2078 27.9743L15.2078 28.0993H15.2078V29.3166V29.437L15.2078 29.4415C15.2285 30.1533 15.8148 30.7108 16.5428 30.7108C17.2792 30.7108 17.8783 30.1247 17.8783 29.4042C17.8783 29.1477 17.8042 28.9091 17.6753 28.7079ZM17.4507 28.9725C17.2223 29.1786 16.9189 29.307 16.5815 29.3166L16.5791 29.3166H15.535V29.4348C15.5517 29.971 15.9939 30.3908 16.5428 30.3908C17.0987 30.3908 17.551 29.9483 17.551 29.4043C17.551 29.2492 17.5151 29.1027 17.4507 28.9725Z" fill="white"/>
<path fill-rule="evenodd" clip-rule="evenodd" d="M25.9524 17.9352H23.8738V16.7811H25.9524C26.4908 16.7975 26.9718 17.0145 27.3217 17.3582C26.9718 17.7019 26.4908 17.9189 25.9524 17.9352ZM27.7052 16.8291C27.2484 16.417 26.6415 16.16 25.9667 16.141L23.8738 16.141V15.9048C23.9072 14.8323 24.7916 13.9929 25.8892 13.9929C27.0011 13.9929 27.9057 14.8779 27.9057 15.9657C27.9057 16.276 27.8339 16.5688 27.7052 16.8291ZM28.1543 17.3582C28.412 16.9559 28.5602 16.4788 28.5602 15.9657C28.5602 14.5248 27.362 13.3525 25.8893 13.3525C24.4333 13.3525 23.2606 14.4676 23.2194 15.8911L23.2194 16.1409H23.2192V18.5756V18.8164L23.2194 18.8255C23.2606 20.249 24.4333 21.3641 25.8893 21.3641C27.362 21.3641 28.5602 20.1918 28.5602 18.7508C28.5602 18.2377 28.412 17.7606 28.1543 17.3582ZM27.7053 17.8873C27.2485 18.2994 26.6415 18.5564 25.9667 18.5755L25.962 18.5756H23.8738V18.8115C23.9072 19.884 24.7916 20.7235 25.8892 20.7235C27.0011 20.7235 27.9057 19.8385 27.9057 18.7506C27.9057 18.4404 27.8339 18.1476 27.7053 17.8873Z" fill="white"/>
<path fill-rule="evenodd" clip-rule="evenodd" d="M7.94222 17.3635H5.34392V16.0175H7.94222C8.61513 16.0366 9.2162 16.2897 9.65359 16.6905C9.2162 17.0914 8.61513 17.3445 7.94222 17.3635ZM10.1333 16.0731C9.56227 15.5923 8.80359 15.2925 7.96012 15.2703L5.34392 15.2702V14.9947C5.38565 13.7435 6.4912 12.7642 7.86327 12.7642C9.25313 12.7642 10.3838 13.7967 10.3838 15.0658C10.3838 15.4278 10.2941 15.7694 10.1333 16.0731ZM10.6945 16.6904C11.0167 16.2211 11.202 15.6644 11.202 15.0658C11.202 13.3848 9.70425 12.0171 7.86327 12.0171C6.04336 12.0171 4.57751 13.318 4.52596 14.9787L4.52594 15.2702H4.52576V18.1106V18.3916L4.52596 18.4022C4.57751 20.063 6.04336 21.3639 7.86327 21.3639C9.70425 21.3639 11.202 19.9962 11.202 18.315C11.202 17.7165 11.0167 17.1598 10.6945 16.6904ZM10.1332 17.3078C9.56219 17.7885 8.80355 18.0883 7.96012 18.1105L7.95419 18.1106H5.34392V18.3863C5.38565 19.6375 6.4912 20.617 7.86327 20.617C9.25313 20.617 10.3838 19.5845 10.3838 18.3152C10.3838 17.9532 10.294 17.6115 10.1332 17.3078Z" fill="white"/>
</g>
<defs>
<clipPath id="clip0">
<rect width="32" height="32" fill="white"/>
</clipPath>
</defs>
</svg>
