<svg width="32" height="32" viewBox="0 0 32 32" fill="none" xmlns="https://www.w3.org/2000/svg">
<path d="M31.8289 15.9474L26.6986 1.85207C26.4416 1.14613 25.9251 0.582506 25.2443 0.265006C24.5635 -0.052431 23.7997 -0.0858686 23.0938 0.171069L21.0383 0.919194C20.5517 1.09626 20.3008 1.63426 20.478 2.12082L26.8908 19.7401C27.0678 20.2267 27.6058 20.4775 28.0924 20.3004L30.148 19.5523C30.854 19.2954 31.4175 18.7789 31.7351 18.098C32.0525 17.4171 32.0859 16.6534 31.8289 15.9474Z" fill="#2fa483ff"/>
<path d="M4.375 13.875H20C20.6904 13.875 21.25 13.3154 21.25 12.625C21.25 11.9346 20.6904 11.375 20 11.375H4.375C3.68463 11.375 3.125 11.9346 3.125 12.625C3.125 13.3154 3.68463 13.875 4.375 13.875Z" fill="#2fa483ff"/>
<path d="M7.39038 9.5001H17.5C18.5356 9.5001 19.375 8.66066 19.375 7.6251C19.375 6.58953 18.5356 5.7501 17.5 5.7501H13.1911C12.0966 5.7501 11.0746 5.20316 10.4675 4.29253C10.233 3.94078 9.79206 3.78947 9.391 3.92322L6.63444 4.8421C5.65838 5.16741 5 6.08084 5 7.10972C5 8.42991 6.07019 9.5001 7.39038 9.5001Z" fill="#2fa483ff"/>
<path d="M6.875 23.875H17.5V25.75H6.875V23.875Z" fill="#2fa483ff"/>
<path d="M22.0312 17.6648V16.6875C22.0312 16.1697 21.6115 15.75 21.0938 15.75H3.28125C2.7635 15.75 2.34375 16.1697 2.34375 16.6875V17.6648C1.01538 17.8887 0 19.0464 0 20.4375V27.3125C0 29.8972 2.10281 32 4.6875 32H19.6875C22.2722 32 24.375 29.8972 24.375 27.3125V20.4375C24.375 19.0464 23.3596 17.8887 22.0312 17.6648ZM19.375 26.6875C19.375 27.2052 18.9552 27.625 18.4375 27.625H5.9375C5.41975 27.625 5 27.2052 5 26.6875V22.9375C5 22.4198 5.41975 22 5.9375 22H18.4375C18.9552 22 19.375 22.4198 19.375 22.9375V26.6875Z" fill="#2fa483ff"/>
</svg>
