<svg width="32" height="32" viewBox="0 0 32 32" fill="none" xmlns="http://www.w3.org/2000/svg">
<path fill-rule="evenodd" clip-rule="evenodd" d="M8.19014 15.6694C8.23255 15.6691 8.27174 15.6688 8.31092 15.668C8.78732 15.6585 9.26223 15.5743 15.5114 14.4665C17.626 14.0916 20.4018 13.5996 24.0625 12.9535V2.71864L9.35356 0.122825C4.53062 -0.72805 0 2.94901 0 7.83608C0 12.237 3.69788 15.7359 8.08144 15.6704C8.12077 15.6699 8.15647 15.6696 8.19014 15.6694ZM5.0625 7.83608C5.0625 6.21633 6.38025 4.89858 8 4.89858C9.61975 4.89858 10.9375 6.21633 10.9375 7.83608C10.9375 9.45583 9.61975 10.7736 8 10.7736C6.38025 10.7736 5.0625 9.45583 5.0625 7.83608ZM25.9375 2.53957L30.7688 0.94576C31.3752 0.74576 32 1.19832 32 1.83607V13.8361C32 14.4746 31.3746 14.9261 30.7688 14.7264L25.9375 13.1326V2.53957ZM9.0625 7.83643C9.0625 8.42323 8.5868 8.89893 8 8.89893C7.4132 8.89893 6.9375 8.42323 6.9375 7.83643C6.9375 7.24962 7.4132 6.77393 8 6.77393C8.5868 6.77393 9.0625 7.24962 9.0625 7.83643ZM21.5625 22.586C21.5625 20.8086 23.0046 19.3985 24.75 19.3985C26.5076 19.3985 27.9375 20.8284 27.9375 22.586V30.836C27.9375 31.3537 27.5178 31.7735 27 31.7735C26.4823 31.7735 26.0625 31.3537 26.0625 30.836V22.586C26.0625 21.8622 25.4738 21.2735 24.75 21.2735C24.0311 21.2735 23.4375 21.8536 23.4375 22.586V25.7735C23.4375 29.0576 20.7942 31.7492 17.5451 31.7735C14.5018 31.7981 12.0589 29.5488 11.6313 26.7441C10.152 26.5501 8.97689 25.4244 8.72108 23.954L7.64001 17.7386C9.56341 17.4185 11.3544 17.1015 13.1593 16.782C13.5562 16.7117 13.9539 16.6414 14.3537 16.5708L15.4266 22.7926C15.6906 24.3237 14.887 25.8261 13.4863 26.4662C13.783 28.3824 15.4438 29.9089 17.5312 29.8985C19.754 29.8819 21.5625 28.0314 21.5625 25.7735V22.586Z" fill="#2fa483ff"/>
</svg>
