<svg width="32" height="32" viewBox="0 0 32 32" fill="none" xmlns="https://www.w3.org/2000/svg">
<path fill-rule="evenodd" clip-rule="evenodd" d="M18.4002 5.40174C14.568 1.86245 14.2103 1.53205 13.7884 1.35248C13.7449 1.33399 13.7008 1.3171 13.6521 1.29847C13.6326 1.29098 13.6123 1.28321 13.591 1.27495C12.5171 0.848949 11.2392 1.0717 10.3565 1.8837L1.55694 9.98057C0.5675 10.8906 0 12.1856 0 13.5343V27.8724C0 29.5618 1.36756 30.9368 3.04819 30.9368H21.8738C23.5544 30.9368 24.9219 29.5618 24.9219 27.8724V13.5343C24.922 12.1856 24.3544 10.8906 23.3657 9.98057C21.2615 8.04442 19.6469 6.55325 18.4002 5.40174ZM11.5541 6.90682C11.6109 6.36195 12.1106 5.97501 12.6698 6.07995C13.2045 6.19145 13.5057 6.70457 13.406 7.18245C13.3001 7.69157 12.8211 8.01589 12.3035 7.9187C11.8091 7.81557 11.5074 7.36645 11.5541 6.90682ZM4.82075 15.3431C4.82075 13.5337 6.14581 12.0618 7.77462 12.0618C9.40406 12.0618 10.7291 13.5337 10.7291 15.3431C10.7291 17.1524 9.404 18.625 7.77462 18.625C6.14581 18.625 4.82075 17.1524 4.82075 15.3431ZM10.1953 25.3218C9.53281 25.3218 9.07044 24.6426 9.33156 24.0212L13.8954 13.1437C14.0961 12.6662 14.6454 12.4412 15.1229 12.6418C15.6004 12.8418 15.8248 13.3918 15.6248 13.8693L11.0603 24.7468C10.9097 25.1056 10.5622 25.3218 10.1953 25.3218ZM17.2349 26.0618C15.6061 26.0618 14.2811 24.5899 14.2811 22.7806C14.2811 20.9712 15.6061 19.4987 17.2349 19.4987C18.8637 19.4987 20.1893 20.9712 20.1893 22.7806C20.1893 24.5899 18.8637 26.0618 17.2349 26.0618ZM6.69576 15.3429C6.69576 14.581 7.18957 13.9367 7.77457 13.9367C8.35957 13.9367 8.85394 14.581 8.85394 15.3429C8.85394 16.1054 8.35957 16.7498 7.77457 16.7498C7.18951 16.7498 6.69576 16.1054 6.69576 15.3429ZM16.156 22.7806C16.156 22.0181 16.6498 21.3738 17.2348 21.3738C17.8198 21.3738 18.3143 22.0181 18.3143 22.7806C18.3143 23.5425 17.8198 24.1869 17.2348 24.1869C16.6498 24.1869 16.156 23.5425 16.156 22.7806ZM29.8303 14.6455C30.3964 16.2935 31.0425 18.1748 31.7646 20.2768C32.4046 21.8087 31.6952 23.5805 30.1696 24.2405L26.797 25.6843V13.5343C26.797 11.6624 26.0088 9.8643 24.6344 8.60055L17.7211 2.2393C24.0765 3.74716 24.1169 3.75464 24.1545 3.76934C24.1571 3.77037 24.1597 3.77144 24.1644 3.77305C25.4307 4.20992 26.462 5.16555 26.9926 6.3943C27.011 6.43714 28.0035 9.32681 29.8303 14.6455Z" fill="#2fa483ff"/>
</svg>
