<svg width="32" height="32" viewBox="0 0 32 32" fill="none" xmlns="http://www.w3.org/2000/svg">
<path d="M29.0857 10.0436C28.516 9.82029 27.8046 9.54132 27.6489 9.27193C27.4789 8.97612 27.5943 8.19761 27.6888 7.57167C27.8503 6.49707 28.0158 5.38398 27.3125 4.68368C26.6023 3.97376 25.4793 4.14215 24.3953 4.30586C23.7766 4.39961 23.0071 4.51654 22.7238 4.35187C22.4392 4.18756 22.1557 3.46269 21.9279 2.88131C21.5277 1.86072 21.1137 0.804947 20.1421 0.543845C19.2973 0.315081 18.3134 0.976238 17.4529 1.66196C16.978 2.03983 16.476 2.41343 15.9991 2.54703C15.6879 2.54688 15.092 2.06987 14.6124 1.68848C13.7873 1.02811 12.8506 0.27949 11.8588 0.54524C10.8684 0.810635 10.4302 1.92763 10.0445 2.91251C9.82024 3.48391 9.5426 4.195 9.15549 4.3952C8.79264 4.49243 8.17145 4.39961 7.57126 4.3098C6.48049 4.14694 5.29766 4.07065 4.68466 4.68572C3.9724 5.39801 4.1418 6.51933 4.30581 7.60462C4.39955 8.22335 4.51613 8.99152 4.35314 9.27576C4.18846 9.55897 3.46396 9.84384 2.88222 10.0703C1.86031 10.4709 0.803509 10.8866 0.543438 11.8565C0.285852 12.8143 0.985396 13.6941 1.66156 14.5457C2.05632 15.0406 2.54727 15.658 2.54662 15.9995C2.54648 16.3107 2.07122 16.9076 1.68808 17.3862C1.02772 18.2114 0.279438 19.1493 0.545188 20.1411C0.810938 21.1329 1.92795 21.5711 2.9142 21.9564C3.48392 22.1797 4.1953 22.4586 4.35107 22.728C4.52107 23.0238 4.40559 23.8024 4.31114 24.4283C4.14968 25.5029 3.98415 26.616 4.68743 27.3163C5.3976 28.0262 6.52068 27.8578 7.60463 27.6941C8.22336 27.6004 8.99286 27.4834 9.27613 27.6481C9.56072 27.8124 9.84421 28.5373 10.072 29.1187C10.4722 30.1392 10.8862 31.195 11.8578 31.4561C12.6983 31.6846 13.6825 31.0248 14.5457 30.3384C15.0205 29.9605 15.5091 29.5746 15.9995 29.4533C16.3107 29.4535 16.9066 29.9305 17.3862 30.3119C18.2126 30.9719 19.1493 31.7205 20.1411 31.4548C21.1316 31.1894 21.5697 30.0724 21.9555 29.0875C22.1797 28.5161 22.4573 27.805 22.8441 27.6035C23.207 27.5063 23.8281 27.5991 24.4283 27.6889C25.5218 27.851 26.7023 27.9294 27.3153 27.3143C28.0276 26.602 27.8582 25.4807 27.6941 24.3954C27.6004 23.7767 27.4838 23.0085 27.6468 22.7243C27.8111 22.4397 28.536 22.1562 29.1174 21.9284C30.1393 21.5278 31.1964 21.1134 31.4562 20.1422C31.7137 19.1844 31.0142 18.3046 30.338 17.453C29.9433 16.9581 29.4537 16.3403 29.4533 16.0005C29.4535 15.6893 29.9287 15.0924 30.3119 14.6138C30.9723 13.7887 31.7206 12.8507 31.4548 11.8589C31.1891 10.8671 30.0719 10.429 29.0857 10.0436ZM13.3604 19.588C13.4378 19.877 13.3212 20.1833 13.0715 20.3482C13.0081 20.3911 12.9398 20.421 12.8685 20.4401C12.6616 20.4955 12.4341 20.4528 12.2589 20.3153L8.42851 17.3086L9.32874 20.6683C9.42813 21.0392 9.20774 21.4209 8.83683 21.5203C8.46591 21.6197 8.08419 21.3993 7.98481 21.0284L6.54443 15.6529C6.46701 15.3639 6.5837 15.0576 6.83336 14.8927C7.08134 14.7269 7.41061 14.7409 7.64591 14.9256L11.4763 17.9323L10.5761 14.5726C10.4767 14.2017 10.6971 13.82 11.068 13.7206C11.4389 13.6212 11.8207 13.8416 11.92 14.2125L13.3604 19.588ZM17.1638 14.968C17.5347 14.8686 17.9165 15.089 18.0159 15.4599C18.1152 15.8308 17.8948 16.2125 17.5239 16.3119L15.5081 16.852L15.8682 18.1959L17.884 17.6557C18.2549 17.5563 18.6367 17.7767 18.736 18.1476C18.8354 18.5186 18.615 18.9003 18.2441 18.9997L15.5563 19.7199C15.1854 19.8192 14.8037 19.5989 14.7043 19.2279L13.2639 13.8524C13.1645 13.4815 13.3849 13.0998 13.7558 13.0004L16.4436 12.2802C16.8146 12.1808 17.1963 12.4012 17.2957 12.7721C17.395 13.143 17.1747 13.5247 16.8037 13.6241L14.7879 14.1643L15.148 15.5081L17.1638 14.968ZM25.3824 10.7795L25.4789 16.5152C25.4841 16.8249 25.2842 17.1002 24.9888 17.191C24.9794 17.1935 24.9699 17.196 24.9619 17.1982C24.6729 17.2756 24.3669 17.1602 24.2004 16.9096L22.9286 14.9803L22.791 17.2887C22.7725 17.5961 22.5908 17.8479 22.2499 17.9249C21.9486 17.9941 21.6375 17.8542 21.4875 17.5847L18.7033 12.5692C18.5181 12.2329 18.6382 11.8103 18.9742 11.6238C19.3032 11.4377 19.7328 11.5574 19.9197 11.8947L21.5436 14.8214L21.6641 12.8144C21.7013 12.2168 22.6097 11.9733 22.9394 12.4727L24.0472 14.1506L23.9902 10.804C23.9821 10.4187 24.2866 10.1038 24.6736 10.0966C25.0606 10.0893 25.3763 10.3966 25.3824 10.7795Z" fill="#2fa483ff"/>
</svg>
