<svg width="32" height="32" viewBox="0 0 32 32" fill="none" xmlns="http://www.w3.org/2000/svg">
<path fill-rule="evenodd" clip-rule="evenodd" d="M21.2074 4H25.8549C26.2542 4 26.578 4.32378 26.578 4.72315V6.02848C24.9953 7.27928 23.9211 9.14611 23.7201 11.2636H20.4843V4.72315C20.4843 4.32378 20.8081 4 21.2074 4ZM26.578 19.9736V17.9451C24.9953 16.6943 23.9211 14.8274 23.7201 12.71H20.4843V19.9736H26.578ZM15.7863 13.6292C16.9815 13.6292 18.0955 13.9697 19.038 14.5582V20.1042C16.7125 19.2281 15.0623 16.9837 15.0623 14.3531V14.3523C15.0623 13.9529 15.3868 13.6292 15.7863 13.6292ZM26.578 27.9602C26.578 28.3596 26.2542 28.6834 25.8549 28.6834H21.2074C20.8081 28.6834 20.4843 28.3596 20.4843 27.9602V21.4198H26.578V27.9602ZM25.1745 11.2634H27.2868C29.8238 11.2634 32 9.24092 32 6.56465C32 6.16827 31.6829 5.84203 31.2865 5.8414C28.1384 5.83649 25.5339 8.2114 25.1745 11.2634ZM27.2865 12.71C29.8278 12.71 32 14.7366 32 17.4086C32 17.805 31.6829 18.1313 31.2864 18.132C28.1384 18.1368 25.534 15.7619 25.1745 12.71H27.2865ZM6.84075 15.2422C6.97956 15.0376 7.07279 14.8056 7.11411 14.5618C8.97944 14.7267 9.97482 15.5689 11.0221 16.4552C11.2813 16.6745 11.5427 16.8953 11.8171 17.1057H2.14575L2.15638 17.0858C2.16056 17.0779 2.16475 17.07 2.16923 17.062C2.40135 16.6529 2.73365 16.4625 3.21606 16.4625C5.07737 16.4625 6.29683 16.0519 6.84075 15.2422ZM1.92963 18.3921H14.794V19.6785H1.92963V18.3921ZM16.7236 21.5251V28.1234C16.7235 28.2719 16.6644 28.4143 16.5594 28.5193C16.4544 28.6244 16.312 28.6834 16.1634 28.6836H0.560148C0.411631 28.6834 0.269236 28.6244 0.164219 28.5193C0.0592003 28.4143 0.000135422 28.2719 -1.52588e-05 28.1234V21.5251C0.000135422 21.3766 0.0592003 21.2342 0.164219 21.1292C0.269236 21.0242 0.411631 20.9651 0.560148 20.965H16.1634C16.312 20.9651 16.4544 21.0242 16.5594 21.1292C16.6644 21.2342 16.7235 21.3766 16.7236 21.5251ZM8.3618 22.2514C7.85293 22.2514 7.35549 22.4023 6.93239 22.685C6.50928 22.9677 6.17951 23.3696 5.98478 23.8397C5.79004 24.3098 5.73909 24.8271 5.83837 25.3262C5.93764 25.8253 6.18269 26.2837 6.54251 26.6436C6.90233 27.0034 7.36077 27.2484 7.85986 27.3477C8.35894 27.447 8.87626 27.396 9.34639 27.2013C9.81652 27.0066 10.2183 26.6768 10.5011 26.2537C10.7838 25.8306 10.9347 25.3331 10.9347 24.8243C10.9339 24.1421 10.6626 23.4882 10.1802 23.0058C9.6979 22.5235 9.04393 22.2522 8.3618 22.2514ZM8.3618 26.1107C7.65132 26.1107 7.07536 25.5347 7.07536 24.8243C7.07536 24.1138 7.65132 23.5378 8.3618 23.5378C9.07227 23.5378 9.64823 24.1138 9.64823 24.8243C9.64823 25.5347 9.07227 26.1107 8.3618 26.1107Z" fill="#2fa483ff"/>
</svg>
