<svg width="34" height="32" viewBox="0 0 34 32" fill="none" xmlns="https://www.w3.org/2000/svg">
<path d="M18 4H11.3333C9.91885 4 8.56229 4.5619 7.5621 5.5621C6.56191 6.56229 6 7.91885 6 9.33333V16C5.99964 16.3502 6.06848 16.6971 6.20257 17.0206C6.33665 17.3442 6.53334 17.638 6.78134 17.8853L16.1147 27.2187C16.6147 27.7186 17.2929 27.9994 18 27.9994C18.7071 27.9994 19.3853 27.7186 19.8853 27.2187L29.2187 17.8853C29.7186 17.3853 29.9994 16.7071 29.9994 16C29.9994 15.2929 29.7186 14.6147 29.2187 14.1147L19.8853 4.78133C19.3653 4.26 18.6827 4 18 4Z" fill="#2fa483ff" stroke="#2fa483ff" stroke-width="2" stroke-linecap="round" stroke-linejoin="round"/>
<path fill-rule="evenodd" clip-rule="evenodd" d="M10 9.33333C10 8.59695 10.597 8 11.3333 8H11.3467C12.083 8 12.68 8.59695 12.68 9.33333C12.68 10.0697 12.083 10.6667 11.3467 10.6667H11.3333C10.597 10.6667 10 10.0697 10 9.33333Z" fill="white"/>
<path d="M12.2941 14.1645L13.6644 13.4956L15.2104 15.0676L14.5207 16.4286L15.3158 17.237L18.0472 11.6511L17.1277 10.7161L11.499 13.3561L12.2941 14.1645ZM14.4735 13.1015L16.7139 12.0105L16.7461 12.0432L15.618 14.2651L14.4735 13.1015Z" fill="white"/>
<path d="M20.0892 17.3006L18.2381 15.4183L17.6297 16.0166L19.4809 17.8989L20.0892 17.3006Z" fill="white"/>
<path d="M18.4148 20.3881L21.4586 23.4831L22.0935 22.8587L19.9753 20.7049L25.156 19.8227L25.6276 19.3589L22.5838 16.2639L21.9489 16.8884L24.0691 19.0442L18.8864 19.9243L18.4148 20.3881Z" fill="white"/>
</svg>
