<svg xmlns="http://www.w3.org/2000/svg" viewBox="0 0 34.63 34.63"><defs><style>.cls-1{fill:none;stroke:#005897;stroke-miterlimit:10;}</style></defs><g id="Layer_2" data-name="Layer 2"><g id="Layer_1-2" data-name="Layer 1"><g id="Ellipse_18" data-name="Ellipse 18"><g id="Group_1125" data-name="Group 1125"><circle id="Ellipse_36" data-name="Ellipse 36" class="cls-1" cx="17.32" cy="17.32" r="16.82"/></g></g><g id="Icon_material-event-note" data-name="Icon material-event-note"><g id="Group_1126" data-name="Group 1126"><path id="Path_2103" data-name="Path 2103" class="cls-1" d="M22.14,16.88H12.8v1.87h9.34ZM24,10.34h-.94V8.47H21.21v1.87H13.73V8.47H11.86v1.87h-.93A1.86,1.86,0,0,0,9.07,12.2h0V25.3a1.86,1.86,0,0,0,1.87,1.86H24a1.87,1.87,0,0,0,1.87-1.86V12.21A1.88,1.88,0,0,0,24,10.34Zm0,15H10.93V15H24Zm-4.67-4.67H12.8v1.87h6.54Z"/></g></g></g></g></svg>