<svg xmlns="http://www.w3.org/2000/svg" viewBox="0 0 34.87 34.87"><defs><style>.cls-1{fill:none;stroke:#005897;stroke-miterlimit:10;}</style></defs><g id="Layer_2" data-name="Layer 2"><g id="Layer_1-2" data-name="Layer 1"><g id="Group_1655" data-name="Group 1655"><g id="Icon_feather-phone-call" data-name="Icon feather-phone-call"><g id="Group_1128" data-name="Group 1128"><path id="Path_2104" data-name="Path 2104" class="cls-1" d="M19.38,11.36a4.49,4.49,0,0,1,3.56,3.55M19.38,7.77a8.1,8.1,0,0,1,7.15,7.13m-.9,7.17v2.7a1.8,1.8,0,0,1-1.79,1.8h-.17a17.75,17.75,0,0,1-7.75-2.75,17.47,17.47,0,0,1-5.4-5.39,17.87,17.87,0,0,1-2.75-7.79,1.79,1.79,0,0,1,1.63-2h2.85a1.79,1.79,0,0,1,1.8,1.55,11.49,11.49,0,0,0,.63,2.52,1.79,1.79,0,0,1-.41,1.9l-1.14,1.13a14.4,14.4,0,0,0,5.39,5.4L19.66,20a1.8,1.8,0,0,1,1.9-.4,12.08,12.08,0,0,0,2.52.63,1.79,1.79,0,0,1,1.55,1.81Z"/></g></g><g id="Ellipse_18-2" data-name="Ellipse 18-2"><g id="Group_1125-2" data-name="Group 1125-2"><circle id="Ellipse_36-2" data-name="Ellipse 36-2" class="cls-1" cx="17.43" cy="17.43" r="16.93"/></g></g></g></g></g></svg>