<svg width="20" height="20" viewBox="0 0 20 20" fill="none" xmlns="https://www.w3.org/2000/svg">
<path d="M17.4139 1.66663H2.58612C2.07848 1.66663 1.66667 2.07843 1.66667 2.58607V17.4138C1.66667 17.9222 2.07848 18.3333 2.58612 18.3333H10.5681V11.8791H8.39514V9.36454H10.5681V7.5069C10.5681 5.35482 11.8833 4.18399 13.8035 4.18399C14.7236 4.18399 15.5146 4.25135 15.7451 4.2819V6.5319H14.4111C13.3694 6.5319 13.1667 7.0326 13.1667 7.76177V9.36663H15.6556L15.3326 11.8875H13.1667V18.3333H17.4132C17.9222 18.3333 18.3333 17.9222 18.3333 17.4138V2.58607C18.3333 2.07843 17.9222 1.66663 17.4139 1.66663Z" fill="#222428"/>
</svg>
