<svg width="8" height="14" viewBox="0 0 8 14" fill="none" xmlns="https://www.w3.org/2000/svg">
<path fill-rule="evenodd" clip-rule="evenodd" d="M7.46499 0.97517C7.70496 1.21521 7.83976 1.54072 7.83976 1.88013C7.83976 2.21954 7.70496 2.54505 7.46499 2.78509L3.24995 7.00013L7.46499 11.2152C7.69816 11.4566 7.82717 11.7799 7.82426 12.1155C7.82134 12.4511 7.68672 12.7722 7.4494 13.0095C7.21208 13.2468 6.89104 13.3814 6.55543 13.3844C6.21981 13.3873 5.89648 13.2583 5.65507 13.0251L0.535076 7.90509C0.295113 7.66505 0.160309 7.33954 0.160309 7.00013C0.160309 6.66072 0.295113 6.33521 0.535076 6.09517L5.65507 0.97517C5.89511 0.735207 6.22062 0.600403 6.56003 0.600403C6.89944 0.600403 7.22496 0.735207 7.46499 0.97517Z" fill="#000000"/>
</svg>
