<svg class="search-icon" width="20" height="20" viewBox="0 0 20 20" fill="none" xmlns="http://www.w3.org/2000/svg">
<path d="M13.4356 12.4388C14.3151 11.3045 14.7296 9.87755 14.5948 8.44834C14.46 7.01912 13.7859 5.69497 12.7098 4.74528C11.6337 3.79558 10.2364 3.29168 8.80208 3.33608C7.36777 3.38048 6.00425 3.96985 4.9889 4.98429C3.97266 5.99944 3.3816 7.36403 3.33616 8.8C3.29071 10.236 3.79431 11.6352 4.74432 12.7127C5.69433 13.7901 7.01926 14.4646 8.4491 14.5987C9.87895 14.7328 11.3061 14.3164 12.4397 13.4344L12.4701 13.4661L15.462 16.4599C15.5275 16.5255 15.6053 16.5775 15.6909 16.613C15.7765 16.6484 15.8683 16.6667 15.961 16.6667C16.0536 16.6667 16.1454 16.6484 16.231 16.613C16.3166 16.5775 16.3944 16.5255 16.46 16.4599C16.5255 16.3944 16.5775 16.3165 16.6129 16.2309C16.6484 16.1452 16.6667 16.0534 16.6667 15.9607C16.6667 15.868 16.6484 15.7762 16.6129 15.6906C16.5775 15.6049 16.5255 15.5271 16.46 15.4615L13.4674 12.4684C13.4571 12.4583 13.4465 12.4484 13.4356 12.4388ZM11.9714 5.98269C12.3696 6.37463 12.6863 6.84157 12.9033 7.35656C13.1202 7.87156 13.233 8.42443 13.2353 8.98328C13.2376 9.54213 13.1292 10.0959 12.9165 10.6126C12.7038 11.1294 12.3909 11.5989 11.9959 11.9941C11.6009 12.3892 11.1316 12.7023 10.615 12.9151C10.0985 13.1279 9.54492 13.2363 8.98629 13.234C8.42767 13.2317 7.87502 13.1188 7.36023 12.9018C6.84543 12.6848 6.37869 12.368 5.9869 11.9696C5.20396 11.1735 4.76719 10.1001 4.77173 8.98328C4.77628 7.86647 5.22177 6.79669 6.01117 6.00697C6.80057 5.21726 7.86992 4.77159 8.98629 4.76704C10.1027 4.76249 11.1756 5.19944 11.9714 5.98269Z" fill="#888888"/>
<path d="M13.4356 12.4388C14.3151 11.3045 14.7296 9.87755 14.5948 8.44834C14.46 7.01912 13.7859 5.69497 12.7098 4.74528C11.6337 3.79558 10.2364 3.29168 8.80208 3.33608C7.36777 3.38048 6.00425 3.96985 4.9889 4.98429C3.97266 5.99944 3.3816 7.36403 3.33616 8.8C3.29071 10.236 3.79431 11.6352 4.74432 12.7127C5.69433 13.7901 7.01926 14.4646 8.4491 14.5987C9.87895 14.7328 11.3061 14.3164 12.4397 13.4344L12.4701 13.4661L15.462 16.4599C15.5275 16.5255 15.6053 16.5775 15.6909 16.613C15.7765 16.6484 15.8683 16.6667 15.961 16.6667C16.0536 16.6667 16.1454 16.6484 16.231 16.613C16.3166 16.5775 16.3944 16.5255 16.46 16.4599C16.5255 16.3944 16.5775 16.3165 16.6129 16.2309C16.6484 16.1452 16.6667 16.0534 16.6667 15.9607C16.6667 15.868 16.6484 15.7762 16.6129 15.6906C16.5775 15.6049 16.5255 15.5271 16.46 15.4615L13.4674 12.4684C13.4571 12.4583 13.4465 12.4484 13.4356 12.4388ZM11.9714 5.98269C12.3696 6.37463 12.6863 6.84157 12.9033 7.35656C13.1202 7.87156 13.233 8.42443 13.2353 8.98328C13.2376 9.54213 13.1292 10.0959 12.9165 10.6126C12.7038 11.1294 12.3909 11.5989 11.9959 11.9941C11.6009 12.3892 11.1316 12.7023 10.615 12.9151C10.0985 13.1279 9.54492 13.2363 8.98629 13.234C8.42767 13.2317 7.87502 13.1188 7.36023 12.9018C6.84543 12.6848 6.37869 12.368 5.9869 11.9696C5.20396 11.1735 4.76719 10.1001 4.77173 8.98328C4.77628 7.86647 5.22177 6.79669 6.01117 6.00697C6.80057 5.21726 7.86992 4.77159 8.98629 4.76704C10.1027 4.76249 11.1756 5.19944 11.9714 5.98269Z" stroke="#888888"/>
</svg>
