<svg width="28" height="27" viewBox="0 0 28 27" fill="none" xmlns="https://www.w3.org/2000/svg">
<path d="M15.2681 2.90269C14.8695 1.67469 13.1321 1.67469 12.7321 2.90269L10.7068 9.13469C10.6196 9.40222 10.4499 9.6353 10.2222 9.80055C9.9944 9.96581 9.72019 10.0548 9.43879 10.0547H2.88679C1.59613 10.0547 1.05746 11.708 2.10279 12.468L7.40413 16.3187C7.63185 16.4842 7.80133 16.7176 7.88827 16.9854C7.97522 17.2532 7.97516 17.5416 7.88813 17.8094L5.86413 24.0414C5.46413 25.2694 6.87079 26.292 7.91479 25.532L13.2161 21.6814C13.444 21.5157 13.7184 21.4265 14.0001 21.4265C14.2818 21.4265 14.5563 21.5157 14.7841 21.6814L20.0855 25.532C21.1295 26.292 22.5361 25.2707 22.1361 24.0414L20.1121 17.8094C20.0251 17.5416 20.025 17.2532 20.112 16.9854C20.1989 16.7176 20.3684 16.4842 20.5961 16.3187L25.8975 12.468C26.9415 11.708 26.4055 10.0547 25.1135 10.0547H18.5601C18.279 10.0545 18.0051 9.96539 17.7776 9.80016C17.5501 9.63493 17.3806 9.40201 17.2935 9.13469L15.2681 2.90269Z" fill="#2fa483ff" stroke="#2fa483ff" stroke-width="2" stroke-linecap="round" stroke-linejoin="round"/>
</svg>
