<svg width="24" height="24" viewBox="0 0 24 24" fill="none" xmlns="https://www.w3.org/2000/svg">
<path d="M20.5576 2H3.44242C2.64574 2 2 2.64574 2 3.44242V20.5576C2 21.3543 2.64574 22 3.44242 22H20.5576C21.3543 22 22 21.3543 22 20.5576V3.44242C22 2.64574 21.3543 2 20.5576 2V2ZM17.0096 9.65465V11.0067C16.3721 11.007 15.7526 10.882 15.1684 10.6355C14.7927 10.4769 14.4427 10.2725 14.1226 10.0256L14.1322 14.1874C14.1282 15.1246 13.7574 16.0051 13.0864 16.6683C12.5403 17.2081 11.8483 17.5514 11.0983 17.6625C10.9221 17.6886 10.7427 17.702 10.5614 17.702C9.75852 17.702 8.99625 17.4419 8.37273 16.9621C8.25539 16.8717 8.1432 16.7738 8.03633 16.6683C7.3091 15.9495 6.9341 14.9753 6.99723 13.9505C7.04543 13.1704 7.35773 12.4264 7.8784 11.8433C8.56727 11.0716 9.53098 10.6433 10.5614 10.6433C10.7427 10.6433 10.9221 10.6569 11.0983 10.683V11.183V12.5736C10.9313 12.5185 10.7528 12.4882 10.567 12.4882C9.62555 12.4882 8.86395 13.2563 8.87801 14.1983C8.88691 14.8011 9.21621 15.328 9.70184 15.6184C9.93004 15.755 10.1926 15.8395 10.4728 15.8549C10.6923 15.8669 10.9031 15.8364 11.0983 15.7719C11.7709 15.5497 12.2561 14.918 12.2561 14.1729L12.2583 11.3859V6.29797H14.1204C14.1221 6.48246 14.1409 6.6625 14.1757 6.83691C14.3162 7.54297 14.7142 8.15555 15.2681 8.57316C15.7511 8.93746 16.3525 9.1534 17.0043 9.1534C17.0048 9.1534 17.0101 9.1534 17.0097 9.15297V9.65465H17.0096Z" fill="white"/>
</svg>