<?xml version="1.0" encoding="UTF-8"?>
<svg width="24px" height="24px" viewBox="0 0 24 24" version="1.1" xmlns="http://www.w3.org/2000/svg" xmlns:xlink="http://www.w3.org/1999/xlink">
    <title>crop </title>
    <g id="Wordpress" stroke="none" stroke-width="1" fill="none" fill-rule="evenodd">
        <g id="New-Dashboard-Copy-22" transform="translate(-157.000000, -545.000000)" fill="#3448C5">
            <g id="Group-4" transform="translate(138.000000, 507.000000)">
                <g id="crop-" transform="translate(19.000000, 38.000000)">
                    <path d="M17.4545455,15.2727273 L19.6363636,15.2727273 L19.6363636,6.54545455 C19.6363636,5.34545455 18.6545455,4.36363636 17.4545455,4.36363636 L8.72727273,4.36363636 L8.72727273,6.54545455 L17.4545455,6.54545455 L17.4545455,15.2727273 Z M6.54545455,17.4545455 L6.54545455,0 L4.36363636,0 L4.36363636,4.36363636 L0,4.36363636 L0,6.54545455 L4.36363636,6.54545455 L4.36363636,17.4545455 C4.36363636,18.6545455 5.34545455,19.6363636 6.54545455,19.6363636 L17.4545455,19.6363636 L17.4545455,24 L19.6363636,24 L19.6363636,19.6363636 L24,19.6363636 L24,17.4545455 L6.54545455,17.4545455 Z" id="ic_crop_24px"></path>
                </g>
            </g>
        </g>
    </g>
</svg>